<svg data-bbox="21.484 76.004 157.015 48.013" viewBox="21.484 76.004 157.015 48.013" height="200" width="200" xmlns="http://www.w3.org/2000/svg" data-type="color" aria-hidden="true"><defs><style>#comp-jvdgxst3 svg [data-color=&quot;1&quot;]{fill:#fff}</style></defs><path d="M96.974 80.8c.336-.524.42.913 1.314.636V80.8c-.842.186-.822-.325-1.051-.636h-.263c.104.365-.39.544 0 .636zM176.891 111.718c.38.259.352.846 1.051.846.007-.206.322-.163.526-.211.253-.714-1.087-1.219-1.577-.635zM175.314 111.718c-.237-.237-.587.013-1.052-.423-.378.047-.091.631-.526.634-.001.213.214.253.265.423.884.149.861-.434 1.313-.634z" fill="#000010" clip-rule="evenodd" fill-rule="evenodd" data-color="1"/><path d="M176.891 113.2c.7 0 .671.591 1.051.849.805-.526-.274-1.319-.787-1.484.049-.18-.103-.198-.264-.211-.111-.331-.827-.181-.526-.846-.713.201-.982.762-1.577 1.057.171.216.604.219.526.636.089.426-.052.662-.526.634-.358-.84-1.303-1.207-2.892-1.057h-1.052c-.658.269-.823-.108-1.053.211h-.524c.033.381-.262.496-.787.423-.014.292.121.466.262.637v.21c-.744-.174-.682.299-1.316.211.057-.4-1.232-1.24-1.05-.421h-1.052c-.592-1.007-3.279.393-4.469-.423v-.214c.31-.032.746.037.787-.211.183-.419.702-.562 1.315-.636-.009-.643-.152-1.394.789-1.269.214.039.262.211.528.211.193-.652-.723-.407-.528-1.06h.265c.115.19.23.378.525.426v-.211c-.453-.273-.004-1.267-.79-1.273v-.211c.058-.165.221-.246.528-.211.145.303.41.516.788.634-.049-.18.102-.199.262-.212-.569-.912-.674-1.546.262-1.481-.355-.513-.525-.132-.788-.424.068-.496 1.154-.121 1.314 0v-.212c-.325-.512-.703-.985-1.314-1.271h-.262c-.922-.165-.303-.741 0-1.059-.214.042-.262.211-.525.211-1.08-.095.105.453-.265 1.059h-.262c-.498-.234-.923-.526-1.578-.633-.738.001.626.577-.526.421.138.314.39.534.526.849.453-.547.326-.722 1.051-.214v.214c-.038.391-.89.128-1.051.423h-.789c-.232-.131-.47-.256-.525 0-.876-.211.07-.854-.789-1.271-.351.354-1.489.072-1.839.423.002.597.716-.503.524.426-.371.017-.743.035-.788-.214-.654-.03-.814.334-1.314.426v-.637c-.234-.163-.595-.224-1.052-.211-.05.242-.264.119-.263 0-.707-.144-.509.439-.788.637-.379-.047-.092-.633-.526-.637-.276.306.567 1.512 1.577 1.484-.24.709-.489.105-1.315.211-.291-.542-.492-1.158-1.052-1.484-.579.029-.111.899-.261 1.273-.308-.036-.468.046-.526.211-.155.38-.656-.725-.789-1.059h-.527c.081.488-.759.234-.789.634-.627.085.147-.965-.789-.634-.786.514-1.104-.303-1.313 0v.423c-.489-.029-.879-.141-1.052-.423h-.788c-.863-.154-.403.42 0 .423.11.442-.182.561-.265.847-1.249-.383.257-1.118-1.052-.636-.643-.282.29-.787-.261-.849-.059.167-.221.247-.527.214 0-.214.214-.252.263-.426-.203-.048-.518-.004-.523-.211-.226-.037-.249.083-.264.211-.462-.049-.6-.362-.528-.844 1.558-.362 2.544-.998 3.156-2.542-.044-.247.058-.378.263-.423h.525c.349-.921.838-1.727 2.365-1.696v-.423c.317-.24.477-.606 1.315-.424v-.636c.295-.045.41-.236.525-.423.295-.045.41-.236.528-.423.692.531.886-.531 1.577-.636-.042-.246.057-.377.262-.423h.264c1.589-.414 1.485-2.192 3.417-2.33.454-.552.946-1.073 2.104-1.06h.263c-.293-.259-.229-.433.262-.423-.124-.817-.654-1.307-1.315-1.693-.221.037-.247-.083-.262-.213-.851-.26-.201.686-1.053.423-.316.047-.161.234 0 .424-.433.003-.147.587-.526.634.086-.872-1.373-.017-1.84 0-.49.03-.879.141-1.051.424-.465.19-.768.512-1.314.634.006.209.321.167.525.214-.072.433-.702.423-1.05.634.011.292-.124.465-.262.636-1.012-.184-2.251-.388-2.368.636v.422c-.311-.27-.993-.091-1.313.214-.583-.119-.375.401-.788.421-.07-.621.593-.652.526-1.272-.336.011-.363.27-.789.213-.045.316.093.781-.263.846h-.79c-.042.249-.48.18-.788.213-.523.001-.334.578-1.052.423h-.524c.063.373.451.483 1.051.421-.051.174-.265.211-.264.426h-.787c-1.165-.301-.688.716-1.578.634-.633-.086-.572.388-1.315.213.065.23.524.144.526.423-1.362.157.713.514.789.847h-1.315c-.418-.155.06-1.037-.788-.847v.424c.081.864-.549.112-1.051.211-.059.401.296.467.263.846h-.528c-.359-.64.127-.755 0-1.693v-.424c-.012-.364.203-.542.528-.634v-.847c-.46-.194-.582-.663-.528-1.27-.343-.43-1.391-.291-1.577-.847h-2.103c.183.652.183.407 0 1.059-.373-.019-.745-.035-.789.214-.213-.043-.262-.216-.525-.214h-.79c-.063-.266-.522-.214-.526 0-.284-.052-.177-.42-.525-.423h-.526c-.078.558 1.019.165.789.846-.49-.027-.879-.139-1.052-.423-.234.094-.472.186-.526.423h-.526c-.193-.197-.478-.319-.788-.423v-.211c-.886.19-.03.475-.526.847-1.017.091-.935.232-1.577-.213-.282.793.653.606.526 1.272-.454-.741-3.841-.875-2.368-.426.119.591-1.432-.164-1.314.426-.255-.007-.203-.262-.263-.426-.324.095-.54.273-.525.637-.257-.004-.203-.259-.264-.426-.503.398-.477-.124-1.314 0 .046 1.21-.888-.019-1.053.426-.001.213.214.252.265.423-.311.033-.747-.036-.79.211h-.525c-.014-.269-.337-.293-.263-.634-.607-.063-.293.611-.789.634-.16-.01-.311-.032-.263-.211-.211-.04-.262-.211-.525-.211-.146.47.502.302.525.636.082.286.659.175 1.052.211-.05.171-.262.211-.262.423.227.624.393-.49 1.05-.211.111.443-.181.561-.262.847-.373.019-.745.036-.788-.211-.413.091-.226.666-1.052.423-.05.18.103.2.262.211-.042.247.058.377.263.424-.038.526-.891.062-1.052 0-.212-.04-.262-.213-.525-.213v-.846c.743.174.682-.299 1.313-.211-.004-.631-1.241-.272-1.577-.636-.353.139-.491.452-.526.847-.35-.213-.793-.35-1.052-.636-.408.237-.546.689-1.315.636v-.424c-.245.154-.397.387-.524.636-.449-.076-.498.164-.527.423-.394-.587-1.076.37-1.314-.211h-.263c.075.575.961.496 1.052 1.059-.249.916-1.257-.867-2.103-.847h-.264v.211c1.054.49-.101.439-1.05.424-.777.151-1.856.06-2.104.637.31.032.746-.037.788.211-.393.036-.971-.078-1.05.211.643.158.056.631-.264.212v.211c.259.593.702-.308 1.052.213.712-.037.712 1.095 0 1.057h-.526c.357-.922-.626-.765-.789-1.27-1.226-.186.177.698-.526.636a22.354 22.354 0 0 0-.789-.636c-.46 1.082-1.319-.262-2.366.847.354.138.489.453.527.846-.452.011-.674-.163-.79-.423h-.526c.045-.459-.934-.096-1.314-.211-.054.361.448.549 0 .634-.763.46-.682.285-1.839.426v.21h-.263c-.838-.125-.813.398-1.315 0-.05.173-.262.21-.262.423-.213.114-.427.224-.789.211.017.364 1.708.427.789.849h-.789c-1.049.117-.792.117-1.841 0-.115.314-.336-.083-.789 0-.022-.299-.044-.6.262-.637-.114-.314-.336.085-.788 0-.145-.467.503-.301.526-.634-.554-.58-.456.571-1.315 0 .31.315.228.948 1.051.849.056.361-.447.547 0 .634.085.562-1.472-.199-1.051.636h-1.315c-.529.278-.915.675-1.577.847v.211c-1.009-.039-.096.173-.262.637-.446.076-.495-.167-.526-.426-1.133-.278-.326 1.01-1.314.847.05-.171.263-.209.262-.421.074-.344-.249-.367-.262-.637-.891.059-1.511.337-2.629.211.093.279.463.332.525.636-1.131-.066-1.224.708-1.84 1.06-.211.144-.719.328-.787 0-1.039.292-1.997.65-3.156.846h-1.313c-.818.932-3.274.032-3.681.847-.307-.033-.469.048-.526.211-.256-.006-.205-.259-.264-.424-.471-.027-.554.26-1.052.213.889-.777-1.513-.188-1.312-1.059.322.237.539.184.525-.211.336-.011.362-.27.787-.211-.005-.207-.321-.164-.525-.211-.082-.564 1.473.197 1.051-.637v-.211c-.38-.801.724-.406.526-1.059.281-.197.083-.781.79-.636.14.305-1.024.516-.263.636.579-.519.733-1.387 1.839-1.481v-.213c-.02-.368.059-.659.264-.849 0-.211.211-.25.262-.423.108-.36.339.046.789 0-.08-.558.549-.545 1.052-.633h.262v-.214c-.223.042-.247-.081-.262-.211.791.214.464-.47.525-.846v-.212c.517.063.521-.286.789-.423.059.163.008.417.264.423.429-.502 1.108-.803 1.314-1.481.248-.437.848-.588 1.315-.849.014-.129.039-.25.262-.213-.079-.414.354-.419.525-.634v-.423c.321.024.623.063.528.423.36.01.574-.099.787-.211.066-.229.522-.142.525-.424.363-.272.459-1.267-.262-1.27-.403-.112-.016-.22.262-.211.498-.047.58.239 1.053.211-.986-.647.142-.663.263-1.481v-.847c.362.009.576-.101.789-.211v.423h.525c.421-.65 1.303-.926 1.577-1.694h-.262v-.211c.375-.052.443-.35.789-.423.029.256.079.502.525.423-.045-.316.094-.781-.262-.849-.516-.721-.151-.503.788-.423.523.354.336-.017 1.053 0v.423c.214-.039.261-.211.527-.211.17-.214.603-.219.524-.636-.05-.17-.264-.211-.262-.423-.609.429-.605-.086-.262-.423-.196-.652.72-.407.524-1.059-.361.01-.577-.101-.789-.213.016-.129.039-.25.265-.211.044.246.414.23.787.211v-.421c-.509.083-.384-.967.264-.637.609.068 1.009-.033 1.314-.211.139-.17.273-.344.264-.634v-1.06h.525c.336-.011.364-.27.787-.211v-.634c.206-.047.307-.178.265-.423.615-.069.588-.656 1.05-.85.692.066.208-.821 1.053-.634-.04-.847 1.06-1.53.261-2.329-.407-.009.569-1.502-.789-1.272-.04.25.046.601-.262.637-.003-.281-.459-.194-.526-.423.735-.591-.599-.595-1.053-.849h-.261v.211c1.226.132 1.133 1.039 0 1.272-.059-.164-.22-.247-.526-.211.304-.315.304-.535 0-.849v-.423c-.337-.013-.365-.272-.789-.213-.116.309-.231-.02-.526 0v.847c-.827-.24-.639.332-1.053.426-.037-.465-.663-.457-1.314-.426.521.489-.066.236-.262.637v.211c-.827.234-.695.098-1.316-.211.178.492.473.889 1.316.847v.211h.525c-.293-.44-.284-.449.265-.211.16.01.311.03.262.211-.224-.039-.248.082-.262.211.073.342-.249.364-.265.634-.449.01-.68-.158-.788-.423h-.262c.152.371-.318 1.243.262 1.269-.063.547-.452-.291-1.053 0 .049-.178-.102-.197-.262-.211-.074-.342.248-.364.262-.634-1.257.236-1.108-.66-2.365-.423-.05.17-.264.211-.263.423-.68-.486-1.214.431-1.841.634.408.755-.892.129-.789.636.321.024.623.063.526.423v.426c-.85-.263-.201.685-1.05.424H83.3c.019-.337-.128-.81.262-.85-.538-.804-1.185-.571-1.315.426-.45-.046-.682.36-.789 0-.267.138-.272.488-.789.424-.116.187-.229.377-.525.423v.212c-.001.211.212.252.263.423h-.263c-1.199.106-1.49-.368-2.367 0v-.423c-.52.954.436.978-.262 1.694h-1.316c.147.43.791.414.264.846-.246-.154-.398-.384-.526-.634-.741.023-1.116.797-1.839.212.029-.748.48.023.789-.633v-.85c.303.035.466-.046.525-.211-.717-.194.699-.393.262-1.057v-1.061h.525v-.211c.076-.341-.248-.362-.262-.636.212-.111.427-.22.789-.211h.262c-.338-.837.866-.431.527-1.269-.346.105-.116-1.053.525-.847-.006-.207-.321-.164-.525-.211.61-.607.552-1.119 0-1.696.85.262.201-.686 1.051-.423.022-.302.043-.598-.262-.636.306-1.346-.003-1.955-.789-2.752-.198-.689-.962-.922-2.103-.847-.059.163-.008.417-.264.423-.413-.022-.206-.541-.789-.423h-.788c-.324-.237-.539-.186-.526.211-.63-.129-1.201-.306-2.103-.211h-.789c-.454.127.02 1.004-.526 1.057-.306.034-.468-.045-.525-.21-.536-.37-.516.157-1.054-.213-.844-.047-1.11.374-2.1.213.137.168.274.342.261.633-.618-.004-.773.368-1.577.211-.647.029-1.267.035-1.577-.211-.166.362-.795.35-1.052.637.204.046.518.006.526.211-.113.334-.827.181-.526.847.006.206.322.164.526.211-.007.206-.321.164-.526.211h-1.314c-.201.686-1.265.676-1.315 1.483v.211h-.789a20.654 20.654 0 0 1-1.577 1.694c-.214.039-.262.213-.526.213h-.264c-.377.117-.64.328-.789.634h-.261c-.287.053-.18.421-.526.423-.009-.206-.324-.164-.527-.211-.949.577-1.713 1.305-2.629 1.904-.016.129-.039.253-.263.214-.544.558-.694.446-.79 1.059.214.807-.769.649-.787 1.27-.45 1.12-1.622 1.658-2.892 2.119-.191.577.522.424.525.846.381.112.643-.824.79-.211.109.404.096.912.789.846-.021-.295.058-.808.262-.423.362-.02 1.025-.827.526-.847.358-1.292 2.568-2.277 4.206-3.176v-.636c.559.098.502-.302.525-.634.325.237.541.183.527-.212v-.426h.524c1.076.232.673-.726 1.316-.847v-.634h.263c.521-.352.334.02 1.052 0 .314-.662 1.064-.977 1.577-1.481v-.423c.687.058 1.13-.078 1.051-.637.382-.093-.028-.186 0-.423v-.211h.526c.055.256.292.131.525 0 .955-.009.845-.873 1.577-1.06.655.033.815-.332 1.314-.423h.265c-.08-.557 1.019-.168.788-.846h1.576c.129-.675 2.371.355 2.104-.636h.525v.211c.413.02.912-.029.788.424.803-.672 2.521-.242 3.681 0 .296.045.41.233.528.423.318.023.621.063.525.423.158.508.377.967.262 1.694v.637c.303.688-.803 1.3 0 1.693v.211c-.691.022-1.13 1.33-.787 1.481-.114.404-.568.534-.528 1.06-.731.539-.562 1.807-1.314 2.329.217.6-.37.549-.264 1.059-.973.558-.939 1.924-1.577 2.753-.519.148-.702.565-.787 1.059-.214.042-.262.214-.528.212-.418.157.06 1.038-.787.849.184.826-.923.011-1.314 0-.449-.078-.498.165-.528.423-.38.115-1.359-.247-1.312.213.143.469-.504.299-.526.634-.256-.006-.204-.259-.262-.423-.981-.227-.418.794-1.316.634.096-.361-.203-.4-.526-.423-.024.332.034.734-.525.636v.423c.317.045.161.236 0 .423.203.047.519.007.525.213-.541-.187-.995.699-.525.633-.513.224-1.05.426-1.577.637-.049-.242-.263-.118-.262 0-.73.42-1.829-.242-2.367.211.28.66-.167 1.263 1.577 1.059.001.213-.212.253-.264.424-.283.052-.177.421-.525.423-.742-.174-.681.299-1.314.211v.423c-.715-.2-.984-.761-1.578-1.057v.423c.961.332-.61.316-.264.847.052.607.034 1.156-.789 1.06-.644-.283.475-.64-.261-.849-.396-.338-1.108.007-1.315.423-.213-.039-.262-.211-.525-.211-.034.38.321.447.262.849H52.8c.139.17.273.344.262.636h-.525c-.416.017-.207.539-.79.423h-.262c-.677.301-.728 1.106-1.84 1.057v.636h-.263c-.697.003-1.549-.117-1.577.423-.306-.032-.468.049-.528.211-.222-.037-.247.083-.262.211.727.567-.311.463-.263 1.061.458-.016.817.046 1.053.211v.423c-1.335-.013-1.306-.178-2.366-.634.604.65-.065.676-.788.423v.636c-.734-.079-1.731.702-1.316.846v.214c-.506.085-.208.82-1.053.633-.215-.531-.342-1.133-1.313-1.059h-.262v.426c-1.005.335-.31.335-1.316 0 .162-.19.318-.381 0-.426-.093.299-.462.019-.525-.211-.088-.775.291-1.177.525-1.694.157-2.022 1.558-2.267 1.316-4.234.278-.199.081-.782.787-.634.08-.417-.354-.421-.525-.637.262.003.312-.171.525-.211-.027-.239.383-.329 0-.424.004-.279.462-.193.525-.423-.869-.206.295-.419.263-.636-1.227-.222.593-.958-.263-1.481h.528c.222.039.247-.083.262-.211V96.9c-.317-.045-.162-.234 0-.423.597-.296 1.018-.734 1.578-1.059h1.051c-.281-.2-.082-.782-.788-.636.51-.852.526-.47 1.313-.426.138.607.39-.339.526-.423.212.042.262.214.526.211.106-.549.784-.637.789-1.27h.262c-.849-.314.109-1.093-.79-1.059h-.262c.144-.469-.503-.301-.526-.636h-.526v1.059c-.223.042-.248-.081-.263-.21-.54.058-.246.787-.788.846h-.525c-.738.003.624.577-.527.423h-.262c-.273 1.263-1.06 2.113-3.155 1.907-.584.165-.705.703-1.577.636v.847c-.589.232-1.316.348-1.841.634-.015.131-.037.252-.262.213v.633c-.427.365-1.651.083-1.577.849-.545.338-.828.886-1.579 1.059.325.686-.85.163-.526.847-.006.206-.321.164-.525.211-.022.302-.045.6.262.636-.114.332-.827.181-.526.849h-.789c-.033.377.321.446.262.846-1.155-.083-1.78.26-1.839 1.059-.934.026-.888.837-1.316 1.27.042.246-.056.375-.262.423h-.262c-.945.653-1.802 1.372-2.104 2.543h-.262c-1.168.47-1.138 1.907-2.103 2.542v.211c.107.509-.48.46-.264 1.057-.212.042-.261.213-.526.213.059.893-.406 1.368-.525 2.119.047.177-.104.197-.265.211-.88.672-.171 1.376-.526 2.54-.083.492.042.814.263 1.06-.555.794.134.748.527 1.27v.634c.472-.027.614.211.525.636v.423c.203.754 1.786.4 1.839 1.273.269-.138.274-.488.79-.426v.634c1.152.114.862.068 1.839.214.502.089.661.456 1.314.423v-.637c1.39.396 1.603-.524 3.155 0v.214c.017.128.039.249.265.211.244-.227.968-.068.786-.634.5.089.661.455 1.314.423 1.066-.17 1.017-.429 1.577-.637h1.314c.234-.092.472-.186.525-.421-.073-.342.249-.367.265-.637.264.003.312-.17.525-.211.086.585.814.368 1.051 0-.318.065-.906-.613-.262-.634.546.124.85.445 1.315.634.408-.781 1.986.337 1.839 0 .102-.552.844-.591.527-1.482.058-.164.219-.246.526-.213.014.129.04.252.263.213.784-.253 1.466.053 2.365-.424.398-.595.641-.281 1.314-.846.258-.219.521-.427.79-.634-.42-.836 1.135-.075 1.052-.637.223-.039.248.083.262.211.522-.144.603-.646 1.05-.847.009-.204.324-.164.527-.211.093.298.464.017.526-.211-.007-.206-.321-.164-.526-.211.082-.289.659-.175 1.051-.213-.139-.17-.273-.342-.262-.634 1.001.003 1.863.375 1.315-.423h1.314c.206-.19.283-.479.265-.847.521.439.601-.226 1.05-.423-.111-.726.787-.639 1.052-1.061.281-.196.081-.778.788-.634.042-.246-.057-.378-.262-.423.042-.249.479-.18.789-.211.546-.119.555-.332.262-.634.669-.024.92-.391 1.315-.637.047-.18-.104-.2-.264-.21v-.426c1.187.249.587-.938 1.841-.634-.111-.443.18-.561.263-.847h.262c-.23-.68.867-.291.789-.847.06-.164.009-.417.264-.426.501.4.474-.124 1.314 0-.48-.604-.585-.843 0-1.481h-.263c-.102-.715 1.164-.332.788-1.269.753-.03.482-.885.528-1.484v-.211c1.393-.147 2.293-.693 2.101-2.117.459.017.819-.048 1.053-.211v-.424c-.041-.597.789-.493.789-1.06.059-.374-.265-1.057.525-.844.311.102.595.224.79.423.326-.403-.014-.578.26-1.481v-.213c.331-.086.539-.273.527-.634.37-.055.3-.466.525-.636.206.045.306.175.263.424.212-.112.427-.223.789-.213v-.849c.212-.181.72-.124.79-.423-.049-.18.102-.197.262-.212h.263c.383.199 1.605.216 2.629 0-.494-.404.156-.383 0-1.059 0-.213-.214-.25-.263-.424h.263c.393-.035.971.078 1.05-.21.919-.18.943-1.079 1.578-1.481h1.314v-.211c.387-.186.834-.318.789-.849.375.05.443.348.789.423-.29-.659-.169-.758.526-.423.204-.047.518-.006.527-.211-.014-.292.122-.465.262-.636-.073-.318-1.132-.89-.525-1.059-.066.43.96 1.027 1.312.423-.555-.065.277-.735.789-.634v.212c.311-.033.748.037.789-.212-.205-.047-.305-.178-.262-.423.825-.101.694.568 1.314.634.059.164.007.417.263.423.103-.302.316-.358 0-.634.804.153.958-.217 1.577-.213-.015-.129-.038-.25-.262-.21.04-.677 1.463-.879 1.841-.636.464-.394.766.092 1.315.212.078-.534 1.163-1.171 1.312-.426.324.653-.587 1.136-1.312 1.907.039.249-.047.601.262.636-.004.421-.718.269-.527.847h-1.05v.212c-.111.404-.097.912-.79.849.329.62.288.909-.262 1.269h-1.051c.302.434-.413 1.01-.526.423h-.526c.082.846-1.216.577-1.314 1.271-.075.483.063.797.526.846h.525v.426c-.872-.068-1.617-.032-1.841.423-.803-.152-.956.217-1.576.213-.525.421-.768 1.074-1.577 1.27v.211c-.73.4-.963 1.2-1.841 1.48.25.913-1.523.83-.789 1.484-.306-.035-.467.046-.526.211-1.236.204-1.648 1.073-2.102 1.906-.247.155-.398.385-.527.637-1.006.037-.094-.175-.262-.637-.234.093-.469.187-.525.423-.262.726.111.639-.525 1.06-.051.171-.265.213-.265.424-.769.085-1.065.554-1.577.846.204.475-1.315.755 0 .849v.633c-.269-.023-.532.915-.789.211-.322-.38-1.476.352-1.314 1.06-.692-.063-.207.821-1.053.636.049.18-.102.199-.262.211.881.57-1.385 1.348 0 1.694-.487.488-.48.913-1.051 1.694.024.334.67.165.526.634.179.706-.544.342-.789.211.036.82 1.065.837 1.314 1.484h-.525c.049.171.264.21.262.421.523-.352.334.019 1.053 0 .029-.256.077-.501.525-.421.16.013.311.03.262.21.64.447-.232.941.262 1.272 1.029.209 1.526-.467 2.104 0 .495-.42 1.241-.104 1.84 0-.059-.36.296-.524.262 0h.525c.396-.247.644-.613 1.316-.634.743-.177.681.298 1.313.211.467-.19.335-.86 1.315-.637v-.211c.591-.102 1.443-1.076 1.841-.633h.788c.234.092.469.183.527.423-.147-.003-.299.171 0 .21h1.575c.024-.301.045-.598-.262-.633.033-.469 1.117-.092 1.579-.214h.262c.179-.741 1.318-.047 2.102-.423v-.211h.262c.461.626 1.402-.122 2.104 0-.097-.361.204-.4.525-.424h.265c.029-.257.078-.502.524-.423-.14-.17-.273-.344-.262-.634h1.839c-.05-.173-.265-.211-.262-.423.615.069 1.086.253 1.577.423.268-.207.533-.421.79-.634-.371-.058-.301-.466-.526-.637.742.175.68-.299 1.314-.21h.526c.534-.631 1.944-.554 2.892-.849.523.352.334-.02 1.052 0 .201-.877.638-.249 1.316-.636-.005-.279-.462-.194-.527-.423.363.01.577-.101.788-.211h1.051c.377-.083.444-.255.789 0 .654.032 1.092-.111 1.314-.424-.245-.58-.999-.748-1.314-1.271.206-.045.306-.177.264-.421.389.108.661.312 1.05.421.058-.164.221-.245.526-.211.056.237.29.331.526.423-.181.571.544.411.789.637h.524c-.062-.303-.431-.358-.525-.637.599.291.988-.545 1.052 0 .457.019.817-.047 1.051-.211-.066-.229-.523-.142-.526-.421.448.009.679-.158.787-.426.257.006.203.26.265.426.61-.073 1.231-.138 1.05-.849.211.112.427.222.789.211h.262c.265 0 .313.173.527.211h.262c.809-.164 1.05-.642 1.577-.423 1.253-.239 1.896.164 2.629-.634v-.636c.412-.02.912.029.788-.423.413.089.225.665 1.052.423-.224-.676.413-.654.525-1.06.263.003.313-.171.526-.211-.072.485.065.797.527.849.349.518.979-.233 1.052.212.751.296 1.434-.656 1.314.211.467-.188.667-.591 1.577-.423-.192-.577.521-.427.525-.849h.265c.067.299.574.243.788.426h.788c.147-.306.41-.519.789-.637.839-.181.814.332 1.316.423.365.272.161 1.001.525 1.273h-1.314c-.266-.269-1.913.138-2.365.423h-.79c-.285.053-.178.421-.525.423-.72.197-1.123.65-1.84.846v.424c.438.421 1.051.706 1.84.846.139.173.272.344.262.637-1.657.246-3.267.112-4.732 0 .03-.401.869-.147.79-.637-1.099-.106-1.33.485-2.104.637-.285.053-.178.42-.526.424-.49.03-.879.138-1.05.423h-.264c-.047-.18.104-.2.264-.211-.242-.237-.49-.068-1.316-.211-1.074.443-.69.898-1.051 1.693-.306-.034-.467.048-.526.212v.214c-1.693-.151-2.449.344-3.154 0-.252.361-.873.426-1.05.847h.263c.643-.449-.394.219-.263.634.618.058-.303.565-.265.846.453-.01.675.164.789.423v1.061h-.525c.046-.183-.104-.2-.265-.214v.214c-.637-.139-.984 1.007-.525 1.056-.007.209-.321.167-.525.214.127.805-.076 1.351-.526 1.693h-.265v.211c.215.04.263.213.528.213-.293-.305-.283-.516.262-.636.567.712 1.208-.279 1.84-.211.064.266.522.213.526 0 .221-.456 1.355-.178 1.579-.636.495.047.578-.239 1.05-.211-.073-.342.25-.364.262-.637.743.177.683-.298 1.316-.211.515-.431 1.553-.442 1.577-1.27-.014-.397.202-.449.526-.211.204-.047.518-.006.526-.211-.206-.047-.305-.177-.263-.424h.526c.004-.348.73-.117.789-.423h.525c1.037-.152 1.936-.417 2.629-.846h.79v-.211h1.05c.05-.174.265-.211.262-.426.268.138.272.488.789.426.029-.541.481-.741.789-1.059v-.426c.225-.171.155-.578.526-.634.574.788 1.556-.003 1.05-.847-.044-.838.404.068.789-.424.205.047.519.007.526.213.029.257.078.501.525.423.801-.344 1.71-.598 2.104-1.27h.263c.111-.443-.181-.562-.263-.849.394.339 1.106-.004 1.314-.421h.527v.21c.827.104.595-.65 1.577-.424.027.239-.383.329 0 .424.044-.246.416-.229.787-.21-.196-.653.907-.259.527-1.06h-.263c-.058-.401.296-.467.263-.846h-.263c.057-.165.221-.247.526-.213-.042.459.932.096 1.314.213v-.213c.838.181.999-.184 1.315-.423.295-.046.41-.236.526-.423.912-.186.902.324.524.634-.187.552-.945.65-1.05 1.27.043.246-.058.378-.262.423v.211c.04.25-.047.603.262.636.065.761-.79.777-.79 1.483h-.525c.294-.262.229-.433-.263-.423v.423c-.844-.045-.641.755-1.051 1.059v.847c-.007.206-.321.164-.526.211-.199.724 1.068.27.788 1.059h.262c-.293-.664-.023-.479 0-1.27.265.003.314-.171.526-.211.501.089.475.606 1.316.423.203.048.518.006.526.212-.693-.065-.679.443-.789.847-.129.879 1.514.332 1.575 1.06h.79c.031.259.078.501.526.423.994-.306.504.581 1.313.423.449.078.497-.164.528-.423.864-.255 1.979 1.008 2.102 0h.527c.319-.024.621-.063.525-.423-.014-.131-.04-.252-.262-.211-.459.502.196-.237-.263-.423v-.211c.414.017.91-.03.788.423h.526c-.079.488.76.234.789.634-.162.011-.311.032-.262.211.311.315.993.329 1.313.634.382-.115 1.36.249 1.315-.211-.779-.08-1.4-.08-.526-.846h1.051c.961.263.303.518 1.053.846.31-1.13.679-.431.787-1.269.354.137.491.45.526.846.518.063.521-.286.79-.423.457.43-.197.414.262.846 1.05-.115.792-.115 1.841 0 .133-.528-.01-1.277.787-1.269v-.211c.375-.02.746-.036.79.211.447.344.277 1.188 1.051 1.269-.302.768-1.995.739-1.315 1.696-.633.086-.572-.388-1.314-.214h-1.051a.684.684 0 0 1 0 1.061c-.54-.712-.543-.148-1.315 0 .05-.18-.101-.2-.262-.214h-.526c-.855-.498-.58.595-1.577.426.224.171.156.578.526.636-.339.406-.544-.5-1.316 0v-.213c-.255.006-.205.259-.262.423v1.06c-.205.047-.517.006-.526.211-.822.649-2.273-.377-2.629.423.056.239.292.331.526.426-.229.308-.394.669-1.052.634-.321.024-.623.063-.525.423.203.046.305.178.262.423-.307.035-.222.387-.262.636-.214-.112-.428-.22-.79-.212.137.312.388.534.527.847.223-.039.247.082.263.21.206.571-.111.761-.79 1.273-.65.027-.445-.26 0-.211-.038-.463-.661-.457-1.314-.426-.718.608-1.571 1.713-.263 2.33.369-.073.024-.372-.26-.423.091-.334.461.186.523-.211h.525c.118.187.234.377.527.423.31-1.093 2.642-.555 3.154-1.481-.23.985.868-.145.789.421h.263c.39-.25.408-.8.789-1.059.183.427 1.197.919 1.316.214-1.232-.02-1.169-1.407-1.841-1.273-.001-.211.213-.252.262-.423.518-.063.521.285.789.423.068.298.577.243.79.423.784.365-.377 1.31.262 1.483.004-.35.728-.119.789-.421h-.264v-.849h.789c1.072-.175.904-.033 2.103 0 .232-.682-.867-.291-.789-.847v-.211c1.027-.122 1.526.181 2.102.423v-.423h.526c.287 1.149 1.288-.055 1.841.423h.526c.456-.269.689-.715 1.577-.634-.025.237.382.329 0 .423v.211c.311.27.994.091 1.315-.211h.262v.211h1.051v-.211c-.145 0-.298-.17 0-.211.354.068.503.302 1.053.211.04-.249-.045-.601.263-.636.347.003.239.372.525.424-.079-.417.357-.421.526-.636 1.305-.163 1.393.006 2.893 0 .059-.163.007-.417.262-.423h.263c.035.605 1.805-.184 1.841.423.447.076.495-.165.525-.423h.263v.211c.472.027.554-.259 1.053-.211.021-.301.043-.6-.264-.636.108-.266.338-.432.788-.421-.044.739.924.663 1.314 1.057.498-.371-.459-.738.789-.636.045-.316-.094-.781.262-.847h.789c.042-.249.479-.18.789-.211-.028-.525-.492-.654 0-1.059-.771-.18.342-.534 0-1.059.205-.046.518-.006.526-.211-.296-.046-.408-.236-.526-.426.263.003.313-.17.526-.211v-.211c-.523.003-.335.578-1.05.423.18-.567-.545-.407-.79-.633h-.262c.12-.895.801-.141.804-.866zm-125.133-7.201c.339.293 1.142.21 1.841.211.159.78-2.261.569-1.841-.211zm1.84-.847v.426c-.357.066-.502.299-1.05.21-.016-.27-.338-.293-.264-.636h1.314zm-15.773 6.355c-.049-.463.215-.675.788-.634-.001.211.214.25.263.423v.211c-.994-.306-.504.581-1.316.423v-.423h.265zm-6.309 8.47c-.856-1.227-3.701.449-4.207-1.059.679.721 1.708.258 1.577-.211.948-.129.776.646 1.577.634.192-.577-.521-.426-.525-.847.717.155.528-.421 1.051-.421.012.289-.125.463-.262.634.516.063.521-.286.788-.424.482.572.889.036 1.314.424-.239.058-.698.938-.262.846v.424c-.238.708-.589.184-1.051 0zm9.202-19.059v.211c-.831.581.078 1.427-1.053 1.907v.423c-.365.27-.161 1-.526 1.27.107.511-.48.46-.262 1.059-.862.649-.134 2.577-1.316 2.966v.211c.073 1.328-.66 2.009-1.05 2.964-.357.065-.218.529-.262.847-.91.508-1.032.831-1.579 1.272-.546.236-.556.227-.262-.214-1.252-.229-.971.772-2.104.636h-.526c-.027.544-.979.341-1.314.637h-.789c-.657-.27-.824.106-1.052-.211-.137-.328-.274-.014-.262.211h-.789c.043.249.477.177.789.211.004.309-1.109.672 0 .634-.043.249-.48.18-.789.213-.195-.478-1.475-.083-2.103-.213.042-.246-.058-.375-.263-.423 0-.211-.213-.252-.262-.423.658.034.821-.327 1.05-.637-1.3-.213.62-.529-.262-.844-.059-.167-.009-.42-.263-.426.145-.613.41.327.789.211-.328-.683.274-.84.262-1.27.384.303 1.02.312.789-.423.465.393.768-.091 1.314-.211.172-.286.562-.396 1.052-.423v-.849c.881.145.961-.355 1.053-.847-.324-.092-.541-.27-.526-.634.842.184.822-.328 1.052-.636v-.211c.672-.026 1.351-.04 1.314-.636h.262v-.423h-.787c.272-.364 1.536-.263.786-.849.5-.089.661-.455 1.314-.421v-.849c.673-.022 1.253-.121 1.577-.423-.318-.045-.162-.234 0-.423.063-.374.454-.483 1.052-.424-.05-.173-.262-.211-.262-.423v-.637c1.014-.029 1.214-.715 2.365-.634v-.636c.004-.279.46-.193.525-.423-.024-.332.036-.735-.525-.636v-.211c.447.019.661-.693 1.841-.636v-.423h.262c.209.944-.349 1.272-.26 2.119zm18.664 6.777c-.449.01-.681-.158-.789-.424-.618.066-.156 1.004-1.052.847-.382.094.027.186 0 .423-.191.578.523.427.527.847-.469.127-1.093-.62-1.315 0 .206.048.305.178.263.426-.451.043-.681-.364-.79 0-.346-.004-.238-.373-.525-.426.044-.46-.934-.096-1.315-.211.078.574-.369 1.568.79 1.27.007.206.321.165.525.214-.081.286-.659.174-1.05.211-.426-.39-.835.148-1.314-.426-.354.14-.491.453-.526.849-.256-.006-.205-.26-.262-.423.047-.181-.104-.201-.264-.211v.211c-.697.49.697.565 0 1.057h-.264c-1.017-.186-.429.925-1.578.634.318-.278.104-.332 0-.634h-.262c.189.528-1.156.869-.262 1.27-.007.206-.321.164-.525.211.049-.18-.103-.2-.262-.211v.211c-.373-.017-.746-.033-.789.214-.318-.331-1.16-.568-.526-1.061-.537.063-.516.574-1.053.636-.04.528.413.656.525 1.059-.029.168-.868.643-.787.211.146 0 .298-.17 0-.211-.342.282-.347.79.262.849-.059.165-.006.417-.262.423-.324-.967-1.751-.662-1.314.636-.051.17-.265.211-.264.423h-.525c-.079.56 1.018.167.789.847h-.264c-.073-.436-.98-.201-1.052-.636.073-.342-.248-.364-.262-.634-.626.132-1.224.285-1.316.847-.802-.177-1.337-.026-1.575-.213-.257.007-.205.26-.264.424-.537-.426-.516.093-1.053.211-.869.05-1.291.59-.525.847-.255.006-.203.26-.263.424-.743-.177-.679.298-1.315.211v-.211h-1.577v.423c-.029.167-.868.641-.789.211-1.95-.88 1.033-2.001 1.841-2.117v-.211c-.922-.167-.303-.741 0-1.06h.525c-.115-.259-.336-.434-.787-.423.203-.781 1.785-.186 1.839.423.43.095.43-1.152 0-1.057.105-.364-.39-.544 0-.637.62-.518.489.316 1.315.211-.201-.473 1.214-.673.264-1.059-.853-.413.684-.682.789-.211h-.264c.032.539.383.823 1.051.849.295.022.409-.309.525 0h.528c.04-.25-.045-.601.262-.637.28.197.082.782.789.637-.612-.489-.065-1.129.789-1.06.029.259.078.502.525.423-.235-.683.858-.296 1.051-.634.346-.498.733-.962.526-1.904h.262c.064-.547.452.291 1.053 0 .454-.131-.02-1.005.526-1.059.433.001.147.585.526.633.311-.102.595-.226.788-.423v-.21c-.684.124-.948-.085-.788-.637.717-.017.527.352 1.05 0 .523-.164 1.713-.122 1.052-.636.211.112.427.221.789.213.264 0 .313-.173.526-.213 1.409-.134 2.125-.83 2.629-1.693.045-.247.415-.23.788-.214.169-.46-.744-.672.263-.634.057.164.22.247.526.211-.624-.856.643-.886 1.316-1.27-.377-.052-.444-.348-.789-.423.013.365-.203.544-.526.634.01-.291-.122-.465-.264-.634-.122-.45.376-.403.79-.423h.262c-.112-.585.981-.2 1.052-.636.362.01.577-.101.787-.211h.264v-.634c.581-.306-.331-.519.264-.637h.261c.377.052.444.351.79.423.489-.027.876-.139 1.05-.423.055-.236.292-.329.526-.424h.262c.308-.033.222-.383.264-.634.306.033.468-.045.525-.211.503.091.476.605 1.314.423-.073.905-1.396 1.041-.788 1.907-.465.048-1.315-.214-1.051.423h-.264c.016.27.337.293.264.636-.264 0-.314.17-.526.212-.35.352-1.49.072-1.839.423h-.528c-.096.361.206.4.528.423-.139.173-.275.344-.264.636-.083.492.042.814.264 1.06-.82-.042-1.488.496-1.053.844zm42.587-1.061h-1.051c-.346-.072-.413-.371-.789-.423.735-.771 1.575-.398 2.629-.633h.526c.058.163.221.244.526.21v.211c.09.426-.053.663-.526.634l-1.315.001zm72.173 8.798zm-.048.036c-.294.227-.664.393-.62.892-.044-.499.326-.665.62-.892zm-1.299 1.369c-.011.011-.024.023-.033.035l.033-.035zm.017-2.028.006.004a.013.013 0 0 1-.006-.004zm.15 1.877c-.012.009-.027.019-.038.029a.544.544 0 0 1 .038-.029zm.505-.325a.03.03 0 0 1 .005.01l-.006.004.006-.004-.005-.01zm-.278.168-.025.016.025-.016zm.286-.159.004-.001c-.001-.001-.004.001-.004.001zm.531-.238zm-8.682 2.151c-.164.452-1.618.198-1.84 0v-.21c.392-.037.971.075 1.052-.211-.295-.048-.41-.237-.525-.426.203-.049.516-.006.525-.211-.162-.013-.312-.032-.262-.211.495.047.579-.239 1.05-.213v.213c.138.168.275.344.262.634-.211.111-.426.222-.788.214.006.203.321.161.526.211v.21zm-3.76-7.106-.082.066c.028-.021.056-.044.082-.066zm-.708.52c.087-.063.173-.127.262-.188a9.62 9.62 0 0 0-.262.188zm-.789.867zm.255-.381zm.256-.262zm.688.135c-.011.035-.052.062-.148.085.095-.023.137-.05.148-.085zm.002-.003c.004-.014 0-.03-.004-.046.004.016.008.032.004.046zm-.022-.089c.005.01.013.022.017.032-.004-.01-.012-.022-.017-.032zm-.127-.457h.001c.288.091.497.131.664.117-.167.014-.376-.027-.665-.117zm-16.562-2.966c-.265.001-.313-.171-.527-.212-.263 0-.313-.171-.524-.211.01-.972 1.299-.132 1.051.423zm-3.944-6.353c.826.102.695-.57 1.315-.636.646-.721 1.759-.244 2.89-.211v.636c-.181.171-.408.58 0 .637-.081.703-1.245-.639-1.048.423-.523-.003-.336-.577-1.052-.423h-1.053c-.465-.051-1.317.212-1.052-.426zm14.985 9.107c-.743.222-1.803-.35-1.84 0 .145 0 .299.17 0 .211.001-.211-.214-.253-.264-.423.383-.328 1.347-.186 2.104-.211v-.637h-.526c-.668-.024-1.019-.308-1.052-.847.717-.154.53.421 1.052.426.029-.26.078-.502.526-.426.094.63.418 1.073.789 1.484-.518-.064-.522.285-.789.423zm6.045 8.469c-.474-.305-.803-.047-1.839-.211-.426.154-.426-.998 0-.846.059.164.007.419.264.423-.001-.213.213-.252.263-.423.375-.053.443-.348.787-.424.554.516-.415 1.087.525 1.059.8-.262-.283-.728 0-1.269.206.045.521.004.527.21-.189.647.269.772.263 1.27-.336.013-.365.272-.79.211zm14.722-5.083v.214c-.584.092-1.425.486-1.577-.214 1.279.572.11-.267.526-.423.173.285.561.396 1.051.423z" fill="#000010" clip-rule="evenodd" fill-rule="evenodd" data-color="1"/><path d="M80.413 114.681c.116.19.23.38.526.426.115-.262.336-.436.789-.426-.21-.393-1.237-.637-1.315 0zM156.387 121.67c.994.306.505-.581 1.314-.423v-.213c-.428-.671-1.686-.449-1.314.636z" fill="#000010" clip-rule="evenodd" fill-rule="evenodd" data-color="1"/></svg>